2.2Hzhigh3min_grf.mot
version=1
nRows=15
nColumns 19
inDegrees=yes
endheader
time	1_ground_force_vx	1_ground_force_vy	1_ground_force_vz	1_ground_force_px	1_ground_force_py	1_ground_force_pz	1_ground_torque_x	1_ground_torque_y	1_ground_torque_z	2_ground_force_vx	2_ground_force_vy	2_ground_force_vz	2_ground_force_px	2_ground_force_py	2_ground_force_pz	2_ground_torque_x	2_ground_torque_y	2_ground_torque_z
            0.005000	           15.325341	          520.018170	          -27.890711	           -0.239458	            0.006262	           -0.414709	           -0.033451	           -1.135041	            0.060877	           12.250539	          387.549218	           38.450512	           -0.221411	            0.005616	           -0.678453	            0.032746	            1.035937	            0.102780
            0.005500	           15.915039	          528.138528	          -29.783355	           -0.239270	            0.006261	           -0.414449	           -0.020427	           -0.677877	            0.038228	           11.007803	          394.537451	           39.883842	           -0.221112	            0.005616	           -0.678349	            0.032250	            1.155893	            0.116849
            0.006000	           16.323768	          536.795292	          -30.664395	           -0.239585	            0.006259	           -0.414095	           -0.007628	           -0.250826	            0.014328	            9.485194	          401.157162	           41.081336	           -0.221137	            0.005617	           -0.678427	            0.034257	            1.448829	            0.148370
            0.006500	           16.046515	          543.827143	          -31.000414	           -0.239560	            0.006260	           -0.414276	           -0.006927	           -0.234768	            0.013383	            8.991248	          408.333413	           42.186507	           -0.221083	            0.005617	           -0.678489	            0.034038	            1.545837	            0.159706
            0.007000	           15.678761	          552.478841	          -30.733126	           -0.239333	            0.006260	           -0.414266	           -0.018548	           -0.653590	            0.036358	            8.637063	          415.695317	           43.010707	           -0.221069	            0.005618	           -0.678664	            0.033409	            1.607938	            0.166368
            0.007500	           15.449890	          559.326201	          -30.061202	           -0.239689	            0.006261	           -0.414401	           -0.029516	           -1.068541	            0.057429	            8.796940	          423.427089	           43.929858	           -0.220823	            0.005620	           -0.678978	            0.028974	            1.394625	            0.144690
            0.008000	           15.813916	          567.980990	          -30.483569	           -0.239591	            0.006259	           -0.413937	           -0.036833	           -1.322930	            0.071002	            8.678313	          430.421663	           44.705715	           -0.220867	            0.005619	           -0.678890	            0.023383	            1.159739	            0.120456
            0.008500	           17.138598	          575.377946	          -31.830855	           -0.239586	            0.006260	           -0.414272	           -0.031316	           -1.051337	            0.058162	            8.373219	          437.229306	           46.091061	           -0.220940	            0.005619	           -0.679032	            0.020408	            1.065656	            0.112337
            0.009000	           18.692363	          583.496131	          -33.175617	           -0.239689	            0.006259	           -0.414000	           -0.016914	           -0.527968	            0.030018	            7.407389	          445.325071	           47.058932	           -0.221121	            0.005620	           -0.679317	            0.018960	            1.139847	            0.120451
            0.009500	           19.695967	          589.992378	          -34.663535	           -0.239736	            0.006260	           -0.414188	           -0.006218	           -0.186248	            0.010943	            6.263547	          450.841459	           48.205396	           -0.220878	            0.005620	           -0.679244	            0.020539	            1.478338	            0.158069
            0.010000	           20.426919	          597.025014	          -35.139629	           -0.239605	            0.006260	           -0.414203	           -0.004957	           -0.144893	            0.008528	            5.625460	          458.940143	           48.703847	           -0.220887	            0.005622	           -0.679634	            0.021222	            1.731332	            0.183733
            0.010500	           20.196291	          604.776485	          -35.105822	           -0.239960	            0.006259	           -0.413956	           -0.019672	           -0.589081	            0.034195	            5.460005	          465.934381	           49.526653	           -0.221006	            0.005621	           -0.679532	            0.019687	            1.679991	            0.178575
            0.011000	           20.149049	          611.807003	          -35.121415	           -0.239903	            0.006259	           -0.414029	           -0.034270	           -1.040562	            0.059735	            5.626363	          471.825963	           50.063808	           -0.220986	            0.005620	           -0.679193	            0.017825	            1.494782	            0.158606
            0.011500	           20.605542	          619.919864	          -35.271193	           -0.239987	            0.006258	           -0.413879	           -0.041034	           -1.234516	            0.070239	            6.025059	          478.270204	           50.790548	           -0.220969	            0.005620	           -0.679160	            0.015856	            1.258619	            0.133661
            0.012000	           21.565223	          627.133626	          -35.930506	           -0.239967	            0.006259	           -0.413911	           -0.031952	           -0.929201	            0.053237	            6.139955	          485.450328	           51.426179	           -0.220848	            0.005621	           -0.679436	            0.014998	            1.185820	            0.125620
